<?xml version="1.0" encoding="iso-8859-1"?>
<!-- Generator: Adobe Illustrator 19.0.0, SVG Export Plug-In . SVG Version: 6.00 Build 0)  -->
<svg version="1.1" id="Layer_1" xmlns="http://www.w3.org/2000/svg" xmlns:xlink="http://www.w3.org/1999/xlink" x="0px" y="0px"
	 viewBox="0 0 512.001 512.001" style="enable-background:new 0 0 512.001 512.001;" xml:space="preserve">
<g>
	<g>
		<path d="M398.998,132.672l-128-126.528c-8.341-8.192-21.675-8.192-29.995,0l-128,126.528c-4.053,3.989-6.336,9.451-6.336,15.168
			v108.139c0,8.64,5.184,16.427,13.163,19.712c7.957,3.307,17.131,1.472,23.253-4.629L256,158.144l112.917,112.917
			c4.075,4.096,9.536,6.251,15.083,6.251c2.752,0,5.525-0.512,8.171-1.621c7.979-3.285,13.163-11.072,13.163-19.712V147.84
			C405.334,142.123,403.03,136.661,398.998,132.672z"/>
	</g>
</g>
<g>
	<g>
		<path d="M398.998,367.347l-128-126.528c-8.341-8.213-21.675-8.213-29.995,0l-128,126.528c-4.053,3.989-6.336,9.451-6.336,15.168
			v108.139c0,8.619,5.184,16.405,13.163,19.712c7.957,3.328,17.131,1.472,23.253-4.629L256,392.819l112.917,112.917
			c4.075,4.075,9.536,6.251,15.083,6.251c2.752,0,5.525-0.512,8.171-1.621c7.979-3.307,13.163-11.093,13.163-19.712V382.515
			C405.334,376.798,403.03,371.336,398.998,367.347z"/>
	</g>
</g>
<g>
</g>
<g>
</g>
<g>
</g>
<g>
</g>
<g>
</g>
<g>
</g>
<g>
</g>
<g>
</g>
<g>
</g>
<g>
</g>
<g>
</g>
<g>
</g>
<g>
</g>
<g>
</g>
<g>
</g>
</svg>
